<?xml version="1.0" standalone="no"?>
<!DOCTYPE svg PUBLIC "-//W3C//DTD SVG 20010904//EN"
 "https://www.w3.org/TR/2001/REC-SVG-20010904/DTD/svg10.dtd">
<svg version="1.0" xmlns="http://www.w3.org/2000/svg"
 width="500.000000pt" height="500.000000pt" viewBox="0 0 500.000000 500.000000"
 preserveAspectRatio="xMidYMid meet">
<metadata>
Created by potrace 1.14, written by Peter Selinger 2001-2017
</metadata>
<g transform="translate(0.000000,500.000000) scale(0.100000,-0.100000)"
fill="#000000" stroke="none">
<path d="M2185 3970 c-3 -6 -10 -8 -15 -5 -5 3 -11 1 -15 -4 -3 -5 -14 -8 -25
-6 -11 2 -20 0 -20 -6 0 -5 -3 -8 -7 -8 -5 1 -11 0 -15 -1 -5 -1 -11 -3 -15
-5 -52 -14 -63 -19 -63 -31 0 -7 -6 -11 -14 -8 -7 3 -16 -2 -19 -10 -4 -9 -16
-16 -28 -16 -15 0 -19 -5 -15 -15 5 -14 -6 -20 -28 -16 -5 1 -6 -5 -2 -14 3
-9 2 -13 -4 -10 -6 3 -10 1 -10 -5 0 -6 -4 -8 -10 -5 -5 3 -12 -6 -16 -20 -3
-13 -10 -23 -14 -20 -4 2 -16 -12 -26 -33 -10 -20 -21 -39 -24 -42 -19 -19
-35 -139 -34 -259 0 -115 -2 -137 -17 -152 -10 -10 -20 -15 -23 -12 -3 4 -6
-3 -6 -15 0 -12 -6 -22 -12 -22 -10 0 -9 -3 1 -9 9 -6 10 -11 2 -15 -7 -5 -8
-14 -2 -24 4 -9 6 -22 4 -29 -2 -7 1 -22 8 -35 8 -13 12 -26 11 -30 -1 -5 2
-8 6 -8 5 0 8 -10 7 -22 -1 -13 5 -29 12 -37 12 -11 12 -15 1 -22 -8 -6 -9 -9
-1 -9 7 0 10 -15 8 -40 -2 -25 2 -46 10 -54 8 -7 11 -17 7 -21 -4 -5 0 -4 8 1
29 17 40 13 40 -17 0 -16 5 -29 10 -29 6 0 10 -9 10 -19 0 -11 4 -21 9 -23 5
-1 11 -12 13 -23 1 -10 10 -27 18 -36 33 -38 40 -49 34 -49 -4 0 5 -11 20 -25
14 -13 26 -29 26 -35 0 -5 5 -10 12 -10 6 0 9 -3 5 -6 -3 -4 0 -13 8 -21 8 -8
15 -25 15 -38 0 -13 3 -31 6 -40 5 -11 0 -18 -15 -22 -11 -3 -21 -9 -21 -14 0
-5 -9 -9 -20 -9 -11 0 -20 -5 -20 -11 0 -5 -4 -7 -10 -4 -5 3 -10 2 -10 -4 0
-6 -18 -15 -40 -21 -21 -6 -42 -15 -45 -20 -3 -6 -13 -10 -21 -10 -26 0 -104
-42 -97 -53 3 -6 1 -7 -6 -3 -6 4 -25 -2 -41 -14 -17 -12 -37 -19 -45 -16 -8
3 -15 1 -15 -4 0 -6 -15 -10 -34 -10 -18 0 -39 -7 -46 -15 -7 -9 -15 -13 -18
-10 -3 3 -12 -1 -21 -9 -9 -8 -23 -16 -31 -18 -8 -2 -20 -7 -27 -13 -31 -25
-40 -31 -65 -44 -16 -8 -26 -16 -24 -18 2 -2 -9 -18 -25 -35 -15 -17 -27 -34
-26 -38 3 -9 -36 -84 -48 -92 -5 -4 -6 -10 -3 -14 4 -3 -2 -15 -13 -27 -10
-11 -19 -27 -19 -34 0 -7 -5 -13 -11 -13 -5 0 -8 -4 -5 -8 3 -5 -1 -20 -9 -35
-8 -15 -11 -27 -8 -27 3 0 0 -6 -6 -13 -6 -8 -8 -17 -4 -20 3 -4 0 -7 -7 -7
-7 0 -11 -3 -7 -6 3 -3 -1 -23 -8 -45 -8 -21 -12 -39 -8 -39 3 0 0 -7 -7 -15
-7 -8 -9 -15 -5 -15 4 0 3 -6 -2 -12 -5 -7 -9 -39 -9 -70 1 -39 -3 -59 -12
-63 -7 -3 -11 -9 -7 -14 3 -5 1 -12 -5 -16 -6 -4 -8 -10 -5 -15 3 -5 2 -11 -2
-13 -5 -3 -8 -37 -7 -76 0 -39 -3 -71 -7 -71 -5 0 -6 -7 -3 -15 4 -8 3 -23 -1
-32 -4 -10 -9 -31 -11 -47 -3 -17 -8 -32 -12 -35 -11 -9 -13 -18 -27 -146 -3
-27 -6 -61 -8 -75 -1 -14 -6 -28 -12 -32 -6 -5 -5 -8 4 -8 9 0 10 -4 4 -12 -5
-7 -9 -24 -9 -38 1 -14 -3 -28 -7 -31 -5 -3 -9 -20 -9 -37 -1 -18 -4 -32 -7
-32 -4 0 -7 -8 -8 -17 0 -10 -4 -29 -8 -43 -3 -14 -7 -32 -8 -40 -1 -8 -8 -19
-15 -23 -7 -5 -10 -12 -7 -18 4 -5 1 -9 -5 -9 -6 0 -9 -4 -6 -9 4 -5 0 -12 -6
-14 -7 -3 721 -5 1617 -4 1438 2 1630 4 1627 17 -2 8 -5 35 -7 60 -3 25 -6 54
-9 66 -2 11 -7 61 -11 110 -4 49 -8 105 -10 124 -3 34 -5 105 -4 145 1 25 -22
108 -31 115 -4 3 -10 23 -14 45 -3 22 -8 54 -12 70 -13 66 -15 83 -17 162 l-2
81 -61 64 c-48 49 -65 75 -77 119 -9 30 -28 72 -42 93 -14 20 -25 40 -25 44
-1 4 -14 23 -30 42 -17 19 -30 40 -30 47 0 7 -4 13 -10 13 -5 0 -14 18 -20 40
-6 22 -15 40 -21 40 -6 0 -7 5 -4 10 3 6 2 10 -4 10 -6 0 -22 11 -36 26 -14
14 -29 23 -34 19 -5 -3 -11 -1 -13 3 -4 12 -138 75 -145 68 -3 -3 -18 1 -34 9
-15 8 -36 16 -46 18 -25 5 -73 29 -73 37 0 9 -81 54 -103 57 -10 2 -28 9 -40
15 -12 7 -24 12 -27 13 -3 0 -23 11 -45 25 -44 27 -72 37 -125 46 -19 3 -39 9
-45 12 -5 4 -27 7 -47 8 -20 1 -49 9 -63 18 -14 9 -25 14 -25 11 0 -4 -16 11
-35 32 -31 34 -43 61 -44 103 0 8 -2 43 -5 78 -2 34 -1 62 3 62 7 0 10 22 12
88 1 17 4 32 8 32 4 0 5 17 3 39 -4 37 -3 39 32 45 23 5 34 11 30 18 -5 8 -1
9 11 4 15 -5 16 -4 5 9 -7 8 -9 15 -6 15 4 0 2 9 -4 19 -6 12 -6 22 -1 26 6 3
8 19 6 35 -2 17 0 30 4 30 8 0 6 125 -3 180 -4 19 -11 37 -16 38 -6 2 -8 8 -4
13 5 9 -8 13 -37 10 -9 -1 -16 4 -16 11 -1 7 -9 47 -18 88 -9 41 -21 91 -25
110 -12 59 -43 123 -75 159 -57 64 -84 91 -93 91 -5 0 -21 11 -36 25 -15 14
-33 25 -40 25 -8 0 -16 7 -20 15 -3 8 -9 14 -13 14 -9 -2 -40 8 -65 22 -12 6
-18 6 -18 -1 0 -5 -4 -10 -10 -10 -5 0 -7 6 -4 13 6 16 -25 19 -43 5 -7 -6
-14 -4 -19 3 -4 8 -3 9 4 5 7 -4 12 -2 12 3 0 13 -42 10 -52 -4 -5 -6 -8 -5
-8 3 0 6 -5 12 -11 12 -5 0 -7 -6 -3 -12 6 -10 4 -10 -8 0 -11 9 -18 10 -23 2z"/>
</g>
</svg>
